HIERARCHY
ROOT Hips
{
  OFFSET -32.5998 29.0326 120.673
  CHANNELS 6 Xposition Yposition Zposition Zrotation Xrotation Yrotation
  JOINT LeftUpLeg
  {
    OFFSET 8.64259 1.95398 -2.38835
    CHANNELS 3 Zrotation Xrotation Yrotation
    JOINT LeftLeg
    {
      OFFSET 43.7702 0 0
      CHANNELS 3 Zrotation Xrotation Yrotation
      JOINT LeftFoot
      {
        OFFSET 40.6238 0 0
        CHANNELS 3 Zrotation Xrotation Yrotation
        JOINT LeftToeBase
        {
          OFFSET 12.7242 0 0
          CHANNELS 3 Zrotation Xrotation Yrotation
          End Site
          {
            OFFSET 0 0 0
          }
        }
      }
    }
  }
  JOINT RightUpLeg
  {
    OFFSET -8.2249 1.95398 -2.59336
    CHANNELS 3 Zrotation Xrotation Yrotation
    JOINT RightLeg
    {
      OFFSET 43.5653 0 0
      CHANNELS 3 Zrotation Xrotation Yrotation
      JOINT RightFoot
      {
        OFFSET 40.6238 0 0
        CHANNELS 3 Zrotation Xrotation Yrotation
        JOINT RightToeBase
        {
          OFFSET 12.7242 0 0
          CHANNELS 3 Zrotation Xrotation Yrotation
          End Site
          {
            OFFSET 0 0 0
          }
        }
      }
    }
  }
  JOINT Spine
  {
    OFFSET 0.165834 0.87714 6.61349
    CHANNELS 3 Zrotation Xrotation Yrotation
    JOINT Spine1
    {
      OFFSET 7.38963 1.71661e-005 0
      CHANNELS 3 Zrotation Xrotation Yrotation
      JOINT Spine2
      {
        OFFSET 11.9445 1.14441e-005 0
        CHANNELS 3 Zrotation Xrotation Yrotation
        JOINT Spine3
        {
          OFFSET 14.7254 4.19617e-005 0
          CHANNELS 3 Zrotation Xrotation Yrotation
          JOINT Spine4
          {
            OFFSET 10.9679 0 0
            CHANNELS 3 Zrotation Xrotation Yrotation
            JOINT RightShoulder
            {
              OFFSET 2.46616 -1.6653 3.69651
              CHANNELS 3 Zrotation Xrotation Yrotation
              JOINT RightArm
              {
                OFFSET 13.0012 0 0
                CHANNELS 3 Zrotation Xrotation Yrotation
                JOINT RightForeArm
                {
                  OFFSET 28.7848 1.62311e-005 0
                  CHANNELS 3 Zrotation Xrotation Yrotation
                  JOINT RightHand
                  {
                    OFFSET 26.5688 1.62095e-005 0
                    CHANNELS 3 Zrotation Xrotation Yrotation
                    End Site
                    {
                      OFFSET 0 0 0
                    }
                  }
                }
              }
            }
            JOINT LeftShoulder
            {
              OFFSET 2.38034 -1.29275 -3.7523
              CHANNELS 3 Zrotation Xrotation Yrotation
              JOINT LeftArm
              {
                OFFSET 16.3182 6.07031e-005 0
                CHANNELS 3 Zrotation Xrotation Yrotation
                JOINT LeftForeArm
                {
                  OFFSET 27.0901 0 0
                  CHANNELS 3 Zrotation Xrotation Yrotation
                  JOINT LeftHand
                  {
                    OFFSET 24.5451 1.51738e-005 0
                    CHANNELS 3 Zrotation Xrotation Yrotation
                    End Site
                    {
                      OFFSET 0 0 0
                    }
                  }
                }
              }
            }
            JOINT Neck
            {
              OFFSET 5.0226 -0.0266342 0
              CHANNELS 3 Zrotation Xrotation Yrotation
              JOINT Head
              {
                OFFSET 6.69364 2.86102e-005 0
                CHANNELS 3 Zrotation Xrotation Yrotation
                End Site
                {
                  OFFSET 0 0 0
                }
              }
            }
          }
        }
      }
    }
  }
}
MOTION
Frames:	10
Frame Time:	0.0416667
68.8327 86.6361 34.8174 92.2636 -34.55 103.167 -165.645 39.3319 79.2114 -79.7206 14.0733 -1.70806 81.4483 13.3249 6.19134 21.0348 1.39585 -9.62788 163.922 -6.28356 82.7452 -40.125 -8.9416 2.6015 75.3077 -9.63813 -1.7069 50.4093 -9.40181 -1.08683 2.88884 8.00617 -90.7598 10.9168 5.40035 -2.0212 -0.744892 5.30616 -2.25745 -23.3696 5.75736 -0.299699 -3.35695 5.75736 -0.299695 93.8551 -14.6381 -104.485 29.2217 6.24503 -29.5093 -29.0887 19.7035 -123.459 -5.85978 -0.12425 -2.9765 -83.7612 -43.5237 87.3563 -34.1948 13.8895 51.6343 19.61 -21.2343 -116.235 -2.46786 -0.0853868 -10.5476 25.4534 1.08734 2.41496 -13.5806 0.00676146 1.79269 
73.6019 88.1477 39.1237 90.9236 -31.6296 102.97 -164.845 38.8935 78.7904 -69.8944 13.0898 -4.24155 82.0635 13.7897 5.33752 17.8875 0.465981 -9.75896 164.665 -12.6334 84.1043 -32.777 -8.35088 3.45376 66.5965 -3.28807 -0.758976 53.9239 -10.899 0.707497 3.11616 7.91052 -90.7576 11.1157 5.85125 -2.07539 -0.544115 5.75424 -2.3316 -23.1849 6.2035 -0.214463 -3.17224 6.20351 -0.214465 94.4802 -12.2461 -103.937 32.9577 5.17964 -31.3158 -26.8895 19.0506 -125.655 -6.81132 -0.286376 -0.29745 -84.331 -41.1124 86.091 -37.3634 13.7599 55.5716 18.9889 -21.9154 -116.893 -1.7593 -0.11821 -9.53255 29.1128 -0.832006 1.95603 -16.9791 -1.76236 1.61051 
78.9505 89.7254 43.4635 89.374 -28.5263 102.635 -164.633 37.0457 78.6477 -59.5631 11.9508 -6.79704 79.5906 12.1237 4.91916 18.8075 -0.240861 -7.75797 166.749 -17.776 86.2585 -27.3819 -8.15319 3.2748 59.8614 1.81403 0.831309 47.0252 -8.2129 4.42765 3.11881 7.77667 -90.6328 11.3806 5.91102 -1.85483 -0.278548 5.82364 -2.11395 -22.9221 6.19421 0.0140721 -2.9094 6.19419 0.014066 94.439 -12.0804 -104.136 33.6651 -0.806454 -31.7842 -31.7389 24.0058 -124.762 -5.37749 -0.190175 -1.16707 -84.4907 -37.7397 85.2947 -40.1891 12.4237 57.7131 17.7522 -21.7795 -118.382 -0.242875 -0.185823 -9.15134 32.3161 -2.42653 -0.105932 -19.6678 -2.48329 1.43664 
84.0309 90.6875 47.511 86.524 -25.8701 101.877 -165.248 36.4601 78.5373 -50.5144 11.0472 -8.48557 76.913 10.4513 4.69435 16.3888 -0.283376 -9.28292 169.69 -18.7676 89.5033 -27.6784 -10.979 2.19009 60.2375 1.96002 0.566315 26.2526 -0.502676 6.18965 3.02012 7.54559 -90.4277 11.8334 5.80507 -1.47154 0.174322 5.73469 -1.72637 -22.4654 5.97802 0.347417 -2.45279 5.978 0.347405 94.2829 -12.6166 -104.305 33.6352 -7.33786 -31.7257 -35.096 27.3105 -122.956 -5.14526 -0.14187 -2.17751 -85.0505 -35.7331 83.9657 -41.3088 11.4577 58.4596 16.3585 -21.2472 -120.14 2.1723 -0.297257 -9.58505 34.159 -3.50335 -2.17368 -19.8978 -2.42316 0.393462 
88.9031 90.8416 51.0255 84.4251 -24.3235 101.941 -166.033 35.8707 79.3253 -43.8581 11.4466 -9.37566 73.3067 7.98808 4.39797 13.0539 -2.10338 -8.07184 171.453 -17.463 91.7079 -32.7965 -14.6903 1.20686 62.4755 0.151713 -0.249662 20.3632 1.48071 7.21227 2.90541 7.3911 -90.3874 12.1388 5.59229 -1.39133 0.478864 5.5256 -1.63679 -22.1533 5.75108 0.359305 -2.14069 5.75103 0.359302 94.4545 -12.8537 -103.721 31.9715 -16.8145 -32.08 -39.1574 29.7043 -118.034 -3.70343 -0.0829747 -3.03056 -86.2278 -37.1436 82.145 -40.1902 8.70842 57.404 16.8553 -20.8802 -121.553 4.0834 -0.355206 -9.0605 34.8274 -3.53049 -2.71993 -18.6444 -2.10769 -0.173046 
93.6475 90.6259 54.2407 84.3577 -23.5031 103.079 -167.632 32.9287 81.1286 -38.8176 11.7128 -8.82272 71.0063 6.33465 3.69155 11.6593 -2.15211 -8.76048 171.073 -15.5873 91.818 -41.9749 -16.2457 0.967634 64.2201 -1.27039 -1.59964 23.4588 -0.386272 9.54136 2.7368 7.37868 -90.4585 12.1625 5.22323 -1.49491 0.500959 5.15238 -1.72388 -22.1189 5.4304 0.148591 -2.10622 5.43036 0.148575 93.6717 -15.0368 -104.778 30.9415 -24.4333 -29.0008 -41.7552 29.7758 -112.55 -3.40495 -0.0824463 -2.78834 -86.1939 -39.563 82.6784 -39.3529 8.45976 53.7601 18.6326 -21.2459 -120.492 5.20967 -0.338342 -8.09938 35.6041 -3.08625 -3.68256 -18.8458 -1.34342 0.701553 
98.8021 90.2937 57.2496 85.7317 -21.8001 104.861 -167.72 28.4362 82.2373 -41.4318 14.3252 -8.72713 75.4537 10.4647 6.91646 1.64175 0.77451 -18.1971 169.514 -13.392 90.9884 -53.8285 -11.1007 1.16769 66.2246 -2.20081 -2.55649 19.0916 1.37977 8.9692 2.42428 7.52559 -90.6186 11.8631 4.52989 -1.71758 0.198652 4.44993 -1.9156 -22.3993 4.83624 -0.273788 -2.3866 4.8362 -0.273808 92.7898 -17.2518 -105.972 32.68 -28.7618 -23.1851 -42.9694 27.3416 -106.793 -4.32885 -0.153996 -1.33778 -86.327 -41.713 82.8535 -39.3343 8.1386 47.5431 21.6418 -21.4772 -117.496 5.08994 -0.329231 -8.0167 34.7507 -1.95403 -4.51372 -17.8773 0.0268596 1.09779 
103.922 89.7175 60.2165 87.3535 -19.9837 105.84 -168.073 21.3637 83.2091 -41.9616 14.8404 -8.02455 87.0576 17.6613 2.69269 -13.204 -6.83397 -14.9609 168.121 -9.14848 90.3785 -68.0532 -1.58186 0.415819 69.0273 -3.51542 -3.14146 15.6355 2.89705 8.42574 2.0397 7.70623 -90.6497 11.4926 3.75451 -1.67749 -0.174196 3.67705 -1.84127 -22.7518 4.08483 -0.469886 -2.73913 4.08482 -0.469903 92.05 -19.6544 -106.647 36.1663 -30.206 -15.5401 -44.8423 24.7035 -101.701 -5.89982 -0.134414 -2.74898 -86.5768 -43.6498 82.7968 -37.5406 7.37946 40.1476 21.4521 -19.4402 -115.392 5.81781 -0.263022 -6.80226 32.1231 -1.00057 -6.36319 -15.5682 1.55128 1.7673 
108.283 88.9095 62.8562 86.9817 -17.3087 104.391 -169.162 16.616 82.1136 -42.4627 16.7636 -7.07487 92.3694 22.1312 3.13692 -10.2456 -11.4915 -8.28286 166.897 -1.0601 89.4058 -82.557 5.92889 -0.986061 71.6057 -5.10616 -4.18128 13.6241 4.30735 6.84428 1.51085 7.72397 -90.435 11.4422 2.80291 -1.15061 -0.226317 2.74955 -1.27292 -22.7853 3.01906 -0.254318 -2.77267 3.01907 -0.254314 91.719 -23.0975 -105.906 39.2175 -30.2307 -7.2075 -46.793 22.3433 -97.165 -5.16207 -0.105069 -3.13527 -86.9483 -46.4282 82.6983 -33.7656 8.63477 30.8914 19.574 -17.5421 -114.303 5.02697 -0.209007 -6.20204 30.1389 -0.340765 -8.13714 -13.6843 2.78919 2.00017 
112.532 87.7517 65.1123 86.7026 -15.1729 100.688 -170.273 11.9177 79.0377 -42.0462 15.3651 -6.81416 94.7893 24.4743 3.29914 -5.28884 -7.94566 -9.86864 168.014 8.62144 86.2308 -96.2798 6.0082 -3.23764 74.3203 -7.4491 -6.16113 12.9495 4.04424 8.17771 1.05283 7.90115 -89.9295 11.0721 2.12851 -0.0661616 -0.597134 2.12353 -0.159833 -23.1451 2.04995 0.576871 -3.13247 2.04996 0.576865 91.1918 -26.4339 -105.7 41.7041 -24.6946 1.67009 -51.1371 21.2945 -95.2947 -3.61944 -0.117884 -1.30694 -86.5648 -49.5231 83.8069 -25.0633 9.48369 15.8314 17.2243 -15.4758 -115.073 7.75189 -0.202815 -5.60657 31.3522 -0.173781 -9.12975 -13.4039 3.52946 1.17568 
